# xmcd CD database file
# 
# 
# Track frame offsets:
#       150
#       27317
#       48333
#       64265
#       83464
#       111329
#       142315
#       156910
#       170211
#       192997
#       234138
#       257255
#       277696
#       303088
#       322560
# 
# Disc length: 4697 seconds
# 
# Revision: 0
# Processed by: cddbd v1.4PL0 Copyright (c) Steve Scherf et al.
# 
# Submitted via: MBCDINFO 1.10b on 2002-07-07
# 
DISCID=bd12570f
DTITLE=Mahalia Jackson - no title
DYEAR=1900
DGENRE=
TTITLE0=Come on children let us sing
TTITLE1=Down by the riverside
TTITLE2=The Lord's prayer
TTITLE3=Rusty bell
TTITLE4=If I could help somebody
TTITLE5=Didn't it rain
TTITLE6=Holding my saviour's hand
TTITLE7=This is my faith
TTITLE8=Elijah rock
TTITLE9=We shall overcome
TTITLE10=We have come a mighty long way
TTITLE11=How I got over
TTITLE12=I would rather have Jesus
TTITLE13=It's in my heart
TTITLE14=Medley: Walk all over God's heaven - Didn't it rain
EXTD=
EXTT0=
EXTT1=
EXTT2=
EXTT3=
EXTT4=
EXTT5=
EXTT6=
EXTT7=
EXTT8=
EXTT9=
EXTT10=
EXTT11=
EXTT12=
EXTT13=
EXTT14=
PLAYORDER=
